<svg width="16" height="16" viewBox="0 0 16 16" fill="none" xmlns="http://www.w3.org/2000/svg">
<path d="M12.6808 6.84038C12.6808 10.6051 7.84038 13.832 7.84038 13.832C7.84038 13.832 3 10.6051 3 6.84038C3 5.55663 3.50997 4.32546 4.41771 3.41771C5.32546 2.50997 6.55663 2 7.84038 2C9.12412 2 10.3553 2.50997 11.263 3.41771C12.1708 4.32546 12.6808 5.55663 12.6808 6.84038Z" fill="#8E94A7"/>
<path d="M7.84039 8.45385C8.73148 8.45385 9.45385 7.73148 9.45385 6.84039C9.45385 5.9493 8.73148 5.22693 7.84039 5.22693C6.9493 5.22693 6.22693 5.9493 6.22693 6.84039C6.22693 7.73148 6.9493 8.45385 7.84039 8.45385Z" fill="#1A1E2C"/>
</svg>
