<svg width="48" height="48" viewBox="0 0 48 48" fill="none" xmlns="http://www.w3.org/2000/svg">
<path d="M11.6307 19.8549C11.8257 19.8549 12.0189 19.8165 12.1991 19.7418C12.3794 19.6672 12.5431 19.5578 12.6811 19.4198C12.819 19.2819 12.9285 19.1182 13.0031 18.9379C13.0778 18.7577 13.1162 18.5645 13.1162 18.3695C13.1162 15.6116 14.2118 12.9667 16.1619 11.0166C18.1119 9.0665 20.7569 7.97094 23.5147 7.97094C26.2726 7.97094 28.9175 9.0665 30.8676 11.0166C32.8177 12.9667 33.9132 15.6116 33.9132 18.3695C33.9171 18.7609 34.0753 19.1349 34.3536 19.4103C34.6316 19.6857 35.0073 19.8402 35.3988 19.8402C35.7902 19.8402 36.1658 19.6857 36.4439 19.4103C36.7221 19.1349 36.8803 18.7609 36.8842 18.3695C36.8842 16.6138 36.5383 14.8753 35.8665 13.2532C35.1946 11.6311 34.2099 10.1573 32.9684 8.91582C31.7268 7.67435 30.253 6.68956 28.631 6.01769C27.0089 5.34581 25.2705 5 23.5147 5C21.759 5 20.0206 5.34581 18.3984 6.01769C16.7764 6.68956 15.3026 7.67435 14.0611 8.91582C12.8196 10.1573 11.8348 11.6311 11.1629 13.2532C10.4911 14.8753 10.1453 16.6138 10.1453 18.3695C10.1453 18.7634 10.3018 19.1412 10.5803 19.4198C10.8589 19.6984 11.2367 19.8549 11.6307 19.8549Z" fill="#1A1E2C"/>
<path d="M42.5293 22.8259H29.452C30.4202 21.5422 30.9432 19.9776 30.9415 18.3695C30.9415 16.3996 30.1589 14.5104 28.7661 13.1175C27.3731 11.7245 25.4838 10.942 23.5139 10.942C21.5442 10.942 19.655 11.7245 18.262 13.1175C16.869 14.5104 16.0865 16.3996 16.0865 18.3695C16.0865 18.7635 16.243 19.1414 16.5216 19.42C16.8002 19.6985 17.1781 19.8551 17.5721 19.8551C17.9661 19.8551 18.344 19.6985 18.6225 19.42C18.9011 19.1414 19.0576 18.7635 19.0576 18.3695C19.0576 17.4881 19.3189 16.6265 19.8086 15.8936C20.2983 15.1607 20.9943 14.5895 21.8086 14.2522C22.6229 13.9148 23.519 13.8266 24.3834 13.9985C25.2479 14.1704 26.0421 14.5949 26.6652 15.2181C27.2885 15.8414 27.713 16.6354 27.885 17.4999C28.0569 18.3644 27.9687 19.2604 27.6314 20.0747C27.294 20.889 26.7229 21.5852 25.99 22.0749C25.2571 22.5646 24.3955 22.8259 23.5141 22.8259H4.50039C4.30407 22.8239 4.1093 22.8609 3.92735 22.9347C3.7454 23.0084 3.57989 23.1176 3.44037 23.2556C3.30085 23.3939 3.19009 23.5582 3.1145 23.7394C3.03892 23.9206 3 24.1151 3 24.3114C3 24.5076 3.03892 24.702 3.1145 24.8833C3.19009 25.0645 3.30085 25.2288 3.44037 25.367C3.57989 25.5051 3.7454 25.6142 3.92735 25.6879C4.1093 25.7618 4.30407 25.7987 4.50039 25.7968H42.5293C42.9207 25.7929 43.2947 25.6347 43.5701 25.3565C43.8455 25.0784 44 24.7028 44 24.3114C44 23.9199 43.8455 23.5442 43.5701 23.2662C43.2947 22.988 42.9207 22.8297 42.5293 22.8259Z" fill="#0346F2"/>
<path d="M35.3693 28.942C35.1743 28.942 34.9811 28.9804 34.8009 29.055C34.6206 29.1297 34.4569 29.2391 34.3189 29.377C34.181 29.515 34.0715 29.6787 33.9969 29.8589C33.9222 30.0392 33.8838 30.2323 33.8838 30.4274C33.8838 33.1853 32.7882 35.8302 30.8381 37.7803C28.8881 39.7304 26.2431 40.8259 23.4853 40.8259C20.7274 40.8259 18.0825 39.7304 16.1324 37.7803C14.1823 35.8302 13.0868 33.1853 13.0868 30.4274C13.0829 30.036 12.9247 29.662 12.6464 29.3866C12.3684 29.1112 11.9927 28.9567 11.6012 28.9567C11.2098 28.9567 10.8342 29.1112 10.5561 29.3866C10.2779 29.662 10.1197 30.036 10.1158 30.4274C10.1158 32.1831 10.4617 33.9216 11.1335 35.5437C11.8054 37.1657 12.7901 38.6396 14.0316 39.8811C15.2732 41.1225 16.747 42.1073 18.369 42.7792C19.9911 43.4511 21.7295 43.7969 23.4853 43.7969C25.241 43.7969 26.9794 43.4511 28.6016 42.7792C30.2236 42.1073 31.6974 41.1225 32.9389 39.8811C34.1804 38.6396 35.1652 37.1657 35.8371 35.5437C36.5089 33.9216 36.8547 32.1831 36.8547 30.4274C36.8547 30.0335 36.6982 29.6556 36.4197 29.3771C36.1411 29.0985 35.7633 28.942 35.3693 28.942Z" fill="#1A1E2C"/>
<path d="M4.47071 25.971H17.548C16.5798 27.2547 16.0568 28.8193 16.0585 30.4274C16.0585 32.3973 16.8411 34.2865 18.2339 35.6794C19.6269 37.0723 21.5162 37.8549 23.4861 37.8549C25.4558 37.8549 27.345 37.0723 28.738 35.6794C30.131 34.2865 30.9135 32.3973 30.9135 30.4274C30.9135 30.0334 30.757 29.6555 30.4784 29.3769C30.1998 29.0983 29.8219 28.9418 29.4279 28.9418C29.0339 28.9418 28.656 29.0983 28.3775 29.3769C28.0989 29.6555 27.9424 30.0334 27.9424 30.4274C27.9424 31.3088 27.6811 32.1704 27.1914 32.9033C26.7017 33.6362 26.0057 34.2074 25.1914 34.5447C24.3771 34.882 23.481 34.9703 22.6166 34.7984C21.7521 34.6264 20.9579 34.202 20.3348 33.5788C19.7115 32.9555 19.287 32.1615 19.115 31.297C18.9431 30.4325 19.0313 29.5364 19.3686 28.7222C19.706 27.9078 20.2771 27.2117 21.01 26.722C21.7429 26.2323 22.6045 25.971 23.4859 25.971H42.4996C42.6959 25.9729 42.8907 25.936 43.0726 25.8622C43.2546 25.7885 43.4201 25.6793 43.5596 25.5412C43.6992 25.403 43.8099 25.2387 43.8855 25.0575C43.9611 24.8762 44 24.6818 44 24.4855C44 24.2893 43.9611 24.0948 43.8855 23.9136C43.8099 23.7324 43.6992 23.5681 43.5596 23.4299C43.4201 23.2918 43.2546 23.1826 43.0726 23.1089C42.8907 23.0351 42.6959 22.9981 42.4996 23.0001H4.47071C4.07935 23.0039 3.70533 23.1622 3.42993 23.4404C3.15453 23.7184 3 24.0941 3 24.4855C3 24.877 3.15453 25.2526 3.42993 25.5307C3.70533 25.8089 4.07935 25.9672 4.47071 25.971Z" fill="#0346F2"/>
</svg>
